<svg width="197" height="209" viewBox="0 0 197 209" fill="none" xmlns="http://www.w3.org/2000/svg">
<path d="M195.5 2H2V207.5H164.5L195.5 174.5V2Z" stroke="black" stroke-width="3"/>
<path d="M23.2461 38C22.7904 38 22.5625 37.7559 22.5625 37.2676V24.7285C22.5625 24.2402 22.7904 23.9961 23.2461 23.9961H31.625C32.1133 23.9961 32.3574 24.2077 32.3574 24.6309V25.7832C32.3574 26.2064 32.1133 26.418 31.625 26.418H25.4141V29.5234H31.1074C31.5957 29.5234 31.8398 29.735 31.8398 30.1582V31.3105C31.8398 31.7337 31.5957 31.9453 31.1074 31.9453H25.4141V35.5781H31.9375C32.4258 35.5781 32.6699 35.7897 32.6699 36.2129V37.3652C32.6699 37.7884 32.4258 38 31.9375 38H23.2461ZM35.2285 36.9551C34.8249 36.6491 34.7272 36.3398 34.9355 36.0273L35.6875 34.8945C35.9349 34.5234 36.2962 34.5039 36.7715 34.8359C37.1361 35.0898 37.6113 35.3535 38.1973 35.627C38.7897 35.8939 39.4115 36.0273 40.0625 36.0273C40.5182 36.0273 40.9577 35.9753 41.3809 35.8711C41.804 35.7669 42.1263 35.5651 42.3477 35.2656C42.569 34.9661 42.6797 34.6113 42.6797 34.2012C42.6797 33.9082 42.6309 33.651 42.5332 33.4297C42.4355 33.2083 42.276 33.026 42.0547 32.8828C41.8333 32.7396 41.6055 32.6191 41.3711 32.5215C40.9609 32.3522 40.4434 32.1862 39.8184 32.0234C39.1999 31.8542 38.5879 31.6523 37.9824 31.418C37.4421 31.2096 36.9473 30.9232 36.498 30.5586C36.0488 30.194 35.7005 29.7839 35.4531 29.3281C35.2057 28.8724 35.082 28.2637 35.082 27.502C35.082 26.597 35.375 25.8223 35.9609 25.1777C36.5469 24.5332 37.2207 24.1198 37.9824 23.9375C38.7441 23.7552 39.5124 23.6641 40.2871 23.6641C41.0553 23.6641 41.8464 23.7812 42.6602 24.0156C43.4805 24.25 44.099 24.543 44.5156 24.8945C44.9258 25.2396 45.0267 25.5521 44.8184 25.832L44.0273 26.8965C43.7604 27.2611 43.4023 27.2904 42.9531 26.9844C42.6667 26.7891 42.2728 26.571 41.7715 26.3301C41.2767 26.0892 40.7591 25.9688 40.2188 25.9688C39.8346 25.9688 39.4798 26.0013 39.1543 26.0664C38.8353 26.1315 38.5521 26.2878 38.3047 26.5352C38.0573 26.7826 37.9336 27.0885 37.9336 27.4531C37.9336 27.8047 38.0247 28.0911 38.207 28.3125C38.3893 28.5273 38.5911 28.6901 38.8125 28.8008C39.0339 28.9049 39.2585 28.9928 39.4863 29.0645C40.1895 29.2923 40.8177 29.4941 41.3711 29.6699C41.9245 29.8392 42.4355 30.028 42.9043 30.2363C43.5553 30.5293 44.0534 30.8223 44.3984 31.1152C44.7435 31.4082 45.0267 31.8086 45.248 32.3164C45.4759 32.8242 45.5898 33.4297 45.5898 34.1328C45.5898 35.1745 45.2578 36.0371 44.5938 36.7207C43.9297 37.3978 43.1908 37.834 42.377 38.0293C41.5697 38.2311 40.7819 38.332 40.0137 38.332C38.8809 38.332 37.9596 38.2214 37.25 38C36.5404 37.7852 35.8665 37.4368 35.2285 36.9551ZM47.3379 26.4961C46.8496 26.4961 46.6055 26.2845 46.6055 25.8613V24.6309C46.6055 24.2077 46.8496 23.9961 47.3379 23.9961H57.377C57.8652 23.9961 58.1094 24.2077 58.1094 24.6309V25.8613C58.1094 26.2845 57.8652 26.4961 57.377 26.4961H53.7832V37.4629C53.7832 37.821 53.6204 38 53.2949 38H51.4199C51.0944 38 50.9316 37.821 50.9316 37.4629V26.4961H47.3379ZM59.2812 30.998C59.2812 28.752 59.8607 26.9681 61.0195 25.6465C62.1784 24.3249 63.832 23.6641 65.9805 23.6641C68.1289 23.6641 69.7826 24.3249 70.9414 25.6465C72.1003 26.9681 72.6797 28.752 72.6797 30.998C72.6797 33.2441 72.1003 35.028 70.9414 36.3496C69.7826 37.6712 68.1289 38.332 65.9805 38.332C63.832 38.332 62.1784 37.6712 61.0195 36.3496C59.8607 35.028 59.2812 33.2441 59.2812 30.998ZM62.3281 30.998C62.3281 32.6257 62.6178 33.8724 63.1973 34.7383C63.7832 35.5977 64.7109 36.0273 65.9805 36.0273C67.25 36.0273 68.1745 35.5977 68.7539 34.7383C69.3398 33.8724 69.6328 32.6257 69.6328 30.998C69.6328 29.3704 69.3398 28.127 68.7539 27.2676C68.1745 26.4017 67.25 25.9688 65.9805 25.9688C64.7109 25.9688 63.7832 26.4017 63.1973 27.2676C62.6178 28.127 62.3281 29.3704 62.3281 30.998ZM82.6016 38C82.1458 38 81.918 37.7559 81.918 37.2676V24.7285C81.918 24.2402 82.1458 23.9961 82.6016 23.9961H90.9805C91.4688 23.9961 91.7129 24.2077 91.7129 24.6309V25.7832C91.7129 26.2064 91.4688 26.418 90.9805 26.418H84.7695V29.5234H90.4629C90.9512 29.5234 91.1953 29.735 91.1953 30.1582V31.3105C91.1953 31.7337 90.9512 31.9453 90.4629 31.9453H84.7695V35.5781H91.293C91.7812 35.5781 92.0254 35.7897 92.0254 36.2129V37.3652C92.0254 37.7884 91.7812 38 91.293 38H82.6016ZM94.584 36.9551C94.1803 36.6491 94.0827 36.3398 94.291 36.0273L95.043 34.8945C95.2904 34.5234 95.6517 34.5039 96.127 34.8359C96.4915 35.0898 96.9668 35.3535 97.5527 35.627C98.1452 35.8939 98.7669 36.0273 99.418 36.0273C99.8737 36.0273 100.313 35.9753 100.736 35.8711C101.16 35.7669 101.482 35.5651 101.703 35.2656C101.924 34.9661 102.035 34.6113 102.035 34.2012C102.035 33.9082 101.986 33.651 101.889 33.4297C101.791 33.2083 101.632 33.026 101.41 32.8828C101.189 32.7396 100.961 32.6191 100.727 32.5215C100.316 32.3522 99.7988 32.1862 99.1738 32.0234C98.5553 31.8542 97.9434 31.6523 97.3379 31.418C96.7975 31.2096 96.3027 30.9232 95.8535 30.5586C95.4043 30.194 95.056 29.7839 94.8086 29.3281C94.5612 28.8724 94.4375 28.2637 94.4375 27.502C94.4375 26.597 94.7305 25.8223 95.3164 25.1777C95.9023 24.5332 96.5762 24.1198 97.3379 23.9375C98.0996 23.7552 98.8678 23.6641 99.6426 23.6641C100.411 23.6641 101.202 23.7812 102.016 24.0156C102.836 24.25 103.454 24.543 103.871 24.8945C104.281 25.2396 104.382 25.5521 104.174 25.832L103.383 26.8965C103.116 27.2611 102.758 27.2904 102.309 26.9844C102.022 26.7891 101.628 26.571 101.127 26.3301C100.632 26.0892 100.115 25.9688 99.5742 25.9688C99.1901 25.9688 98.8353 26.0013 98.5098 26.0664C98.1908 26.1315 97.9076 26.2878 97.6602 26.5352C97.4128 26.7826 97.2891 27.0885 97.2891 27.4531C97.2891 27.8047 97.3802 28.0911 97.5625 28.3125C97.7448 28.5273 97.9466 28.6901 98.168 28.8008C98.3893 28.9049 98.6139 28.9928 98.8418 29.0645C99.5449 29.2923 100.173 29.4941 100.727 29.6699C101.28 29.8392 101.791 30.028 102.26 30.2363C102.911 30.5293 103.409 30.8223 103.754 31.1152C104.099 31.4082 104.382 31.8086 104.604 32.3164C104.831 32.8242 104.945 33.4297 104.945 34.1328C104.945 35.1745 104.613 36.0371 103.949 36.7207C103.285 37.3978 102.546 37.834 101.732 38.0293C100.925 38.2311 100.137 38.332 99.3691 38.332C98.2363 38.332 97.3151 38.2214 96.6055 38C95.8958 37.7852 95.222 37.4368 94.584 36.9551ZM21.8398 59.998C21.8398 57.752 22.4193 55.9681 23.5781 54.6465C24.737 53.3249 26.3906 52.6641 28.5391 52.6641C30.6875 52.6641 32.3411 53.3249 33.5 54.6465C34.6589 55.9681 35.2383 57.752 35.2383 59.998C35.2383 62.2441 34.6589 64.028 33.5 65.3496C32.3411 66.6712 30.6875 67.332 28.5391 67.332C26.3906 67.332 24.737 66.6712 23.5781 65.3496C22.4193 64.028 21.8398 62.2441 21.8398 59.998ZM24.8867 59.998C24.8867 61.6257 25.1764 62.8724 25.7559 63.7383C26.3418 64.5977 27.2695 65.0273 28.5391 65.0273C29.8086 65.0273 30.7331 64.5977 31.3125 63.7383C31.8984 62.8724 32.1914 61.6257 32.1914 59.998C32.1914 58.3704 31.8984 57.127 31.3125 56.2676C30.7331 55.4017 29.8086 54.9688 28.5391 54.9688C27.2695 54.9688 26.3418 55.4017 25.7559 56.2676C25.1764 57.127 24.8867 58.3704 24.8867 59.998ZM38.3242 67C37.8685 67 37.6406 66.7559 37.6406 66.2676V53.7285C37.6406 53.2402 37.8685 52.9961 38.3242 52.9961H41.9766C44.3203 52.9961 45.9447 53.377 46.8496 54.1387C47.7611 54.9004 48.2168 55.9811 48.2168 57.3809C48.2168 58.7806 47.7611 59.8613 46.8496 60.623C45.9447 61.3848 44.3203 61.7656 41.9766 61.7656H40.4922V66.2676C40.4922 66.7559 40.2643 67 39.8086 67H38.3242ZM40.4922 59.3828H41.9668C43.2689 59.3828 44.1543 59.2298 44.623 58.9238C45.0918 58.6113 45.3262 58.097 45.3262 57.3809C45.3262 56.6647 45.0918 56.1536 44.623 55.8477C44.1543 55.5352 43.2689 55.3789 41.9668 55.3789H40.4922V59.3828ZM49.8867 59.998C49.8867 57.752 50.4564 55.9681 51.5957 54.6465C52.735 53.3249 54.3789 52.6641 56.5273 52.6641C57.7643 52.6641 58.8125 52.8561 59.6719 53.2402C60.5312 53.6243 61.1367 54.181 61.4883 54.9102C61.7227 55.3919 61.6836 55.7174 61.3711 55.8867L60.1992 56.5117C59.7891 56.7331 59.4505 56.6094 59.1836 56.1406C59.0143 55.8411 58.6986 55.571 58.2363 55.3301C57.7806 55.0892 57.2435 54.9688 56.625 54.9688C55.2578 54.9688 54.3008 55.4017 53.7539 56.2676C53.207 57.127 52.9336 58.3704 52.9336 59.998C52.9336 61.6257 53.207 62.8724 53.7539 63.7383C54.3008 64.5977 55.2578 65.0273 56.625 65.0273C57.3607 65.0273 57.9792 64.8613 58.4805 64.5293C58.9883 64.1973 59.3398 63.8815 59.5352 63.582C59.8542 63.0938 60.1927 62.9701 60.5508 63.2109L61.7227 63.9922C62.0417 64.207 62.0742 64.5326 61.8203 64.9688C61.4427 65.6198 60.7949 66.1764 59.877 66.6387C58.959 67.1009 57.8424 67.332 56.5273 67.332C54.4115 67.332 52.7741 66.6712 51.6152 65.3496C50.4629 64.028 49.8867 62.2441 49.8867 59.998ZM65.1406 67C64.6849 67 64.457 66.7559 64.457 66.2676V53.7285C64.457 53.2402 64.6849 52.9961 65.1406 52.9961H66.625C67.0807 52.9961 67.3086 53.2402 67.3086 53.7285V66.2676C67.3086 66.7559 67.0807 67 66.625 67H65.1406ZM69.7109 59.998C69.7109 57.752 70.2904 55.9681 71.4492 54.6465C72.6081 53.3249 74.2617 52.6641 76.4102 52.6641C78.5586 52.6641 80.2122 53.3249 81.3711 54.6465C82.5299 55.9681 83.1094 57.752 83.1094 59.998C83.1094 62.2441 82.5299 64.028 81.3711 65.3496C80.2122 66.6712 78.5586 67.332 76.4102 67.332C74.2617 67.332 72.6081 66.6712 71.4492 65.3496C70.2904 64.028 69.7109 62.2441 69.7109 59.998ZM72.7578 59.998C72.7578 61.6257 73.0475 62.8724 73.627 63.7383C74.2129 64.5977 75.1406 65.0273 76.4102 65.0273C77.6797 65.0273 78.6042 64.5977 79.1836 63.7383C79.7695 62.8724 80.0625 61.6257 80.0625 59.998C80.0625 58.3704 79.7695 57.127 79.1836 56.2676C78.6042 55.4017 77.6797 54.9688 76.4102 54.9688C75.1406 54.9688 74.2129 55.4017 73.627 56.2676C73.0475 57.127 72.7578 58.3704 72.7578 59.998ZM86.1953 67C85.7396 67 85.5117 66.7559 85.5117 66.2676V53.7285C85.5117 53.2402 85.7396 52.9961 86.1953 52.9961H87.6406C88.2005 52.9961 88.6237 53.224 88.9102 53.6797L93.8906 61.6777H93.959C93.9264 61.2871 93.9102 60.8965 93.9102 60.5059V53.7285C93.9102 53.2402 94.138 52.9961 94.5938 52.9961H96.0781C96.5339 52.9961 96.7617 53.2402 96.7617 53.7285V66.2676C96.7617 66.7559 96.5339 67 96.0781 67H94.7305C94.1706 67 93.7474 66.7721 93.4609 66.3164L88.3828 58.1719H88.3145C88.347 58.5625 88.3633 58.9531 88.3633 59.3438V66.2676C88.3633 66.7559 88.1354 67 87.6797 67H86.1953ZM99.4473 67C98.9785 67 98.8255 66.7852 98.9883 66.3555L103.773 53.7871C103.975 53.2598 104.281 52.9961 104.691 52.9961H106.059C106.469 52.9961 106.775 53.2598 106.977 53.7871L111.762 66.3555C111.924 66.7852 111.771 67 111.303 67H109.75C109.32 67 109.021 66.7754 108.852 66.3262L107.855 63.6992H102.895L101.898 66.3262C101.729 66.7754 101.43 67 101 67H99.4473ZM103.803 61.2773H106.947L105.746 58.1719C105.603 57.8073 105.515 57.5436 105.482 57.3809C105.456 57.2116 105.427 56.9642 105.395 56.6387H105.355C105.323 56.9642 105.29 57.2116 105.258 57.3809C105.232 57.5436 105.147 57.8073 105.004 58.1719L103.803 61.2773ZM114.184 67C113.728 67 113.5 66.7559 113.5 66.2676V53.7285C113.5 53.2402 113.728 52.9961 114.184 52.9961H115.766C116.156 52.9961 116.352 53.2402 116.352 53.7285V64.5781H122.045C122.533 64.5781 122.777 64.7897 122.777 65.2129V66.3652C122.777 66.7884 122.533 67 122.045 67H114.184ZM23.2461 96C22.7904 96 22.5625 95.7559 22.5625 95.2676V82.7285C22.5625 82.2402 22.7904 81.9961 23.2461 81.9961H26.8984C29.2422 81.9961 30.8665 82.377 31.7715 83.1387C32.6829 83.9004 33.1387 84.9811 33.1387 86.3809C33.1387 87.7806 32.6829 88.8613 31.7715 89.623C30.8665 90.3848 29.2422 90.7656 26.8984 90.7656H25.4141V95.2676C25.4141 95.7559 25.1862 96 24.7305 96H23.2461ZM25.4141 88.3828H26.8887C28.1908 88.3828 29.0762 88.2298 29.5449 87.9238C30.0137 87.6113 30.248 87.097 30.248 86.3809C30.248 85.6647 30.0137 85.1536 29.5449 84.8477C29.0762 84.5352 28.1908 84.3789 26.8887 84.3789H25.4141V88.3828ZM36.2148 96C35.7591 96 35.5312 95.7559 35.5312 95.2676V82.7285C35.5312 82.2402 35.7591 81.9961 36.2148 81.9961H44.5938C45.082 81.9961 45.3262 82.2077 45.3262 82.6309V83.7832C45.3262 84.2064 45.082 84.418 44.5938 84.418H38.3828V87.5234H44.0762C44.5645 87.5234 44.8086 87.735 44.8086 88.1582V89.3105C44.8086 89.7337 44.5645 89.9453 44.0762 89.9453H38.3828V93.5781H44.9062C45.3945 93.5781 45.6387 93.7897 45.6387 94.2129V95.3652C45.6387 95.7884 45.3945 96 44.9062 96H36.2148ZM48.7148 96C48.2591 96 48.0312 95.7559 48.0312 95.2676V82.7285C48.0312 82.2402 48.2591 81.9961 48.7148 81.9961H53.2363C55.248 81.9961 56.7161 82.3086 57.6406 82.9336C58.5651 83.5521 59.0273 84.5612 59.0273 85.9609C59.0273 87.0026 58.653 87.8327 57.9043 88.4512C57.1556 89.0697 56.2051 89.4798 55.0527 89.6816V89.7012C55.6777 89.9355 56.1497 90.2611 56.4688 90.6777C56.7878 91.0944 57.0482 91.459 57.25 91.7715L59.3984 95.1602C59.7565 95.7201 59.6328 96 59.0273 96H57.3281C56.9701 96 56.6771 95.8079 56.4492 95.4238L54.4766 92.1328C54.2617 91.7812 53.8678 91.3971 53.2949 90.9805C52.7285 90.5573 52.1654 90.3457 51.6055 90.3457H50.8828V95.2676C50.8828 95.7559 50.6549 96 50.1992 96H48.7148ZM50.8828 87.9238H52.6309C53.9329 87.9238 54.8574 87.7773 55.4043 87.4844C55.9577 87.1849 56.2344 86.7129 56.2344 86.0684C56.2344 85.3652 55.9674 84.9095 55.4336 84.7012C54.9062 84.4863 54.1283 84.3789 53.0996 84.3789H50.8828V87.9238ZM61.2539 88.998C61.2539 86.752 61.8333 84.9681 62.9922 83.6465C64.151 82.3249 65.8047 81.6641 67.9531 81.6641C70.1016 81.6641 71.7552 82.3249 72.9141 83.6465C74.0729 84.9681 74.6523 86.752 74.6523 88.998C74.6523 91.2441 74.0729 93.028 72.9141 94.3496C71.7552 95.6712 70.1016 96.332 67.9531 96.332C65.8047 96.332 64.151 95.6712 62.9922 94.3496C61.8333 93.028 61.2539 91.2441 61.2539 88.998ZM64.3008 88.998C64.3008 90.6257 64.5905 91.8724 65.1699 92.7383C65.7559 93.5977 66.6836 94.0273 67.9531 94.0273C69.2227 94.0273 70.1471 93.5977 70.7266 92.7383C71.3125 91.8724 71.6055 90.6257 71.6055 88.998C71.6055 87.3704 71.3125 86.127 70.7266 85.2676C70.1471 84.4017 69.2227 83.9688 67.9531 83.9688C66.6836 83.9688 65.7559 84.4017 65.1699 85.2676C64.5905 86.127 64.3008 87.3704 64.3008 88.998ZM83.3242 82.8359C82.9922 82.276 83.1452 81.9961 83.7832 81.9961H85.4922C85.8307 81.9961 86.1302 82.2207 86.3906 82.6699L88.4707 86.293C88.5293 86.3906 88.7018 86.6966 88.9883 87.2109C89.2747 87.7188 89.4408 88.2135 89.4863 88.6953H89.5254C89.571 88.2135 89.737 87.7188 90.0234 87.2109C90.3099 86.6966 90.4824 86.3906 90.541 86.293L92.6211 82.6699C92.8815 82.2207 93.181 81.9961 93.5195 81.9961H95.2285C95.8665 81.9961 96.0195 82.276 95.6875 82.8359L90.9316 90.873V95.4629C90.9316 95.821 90.7038 96 90.248 96H88.7637C88.3079 96 88.0801 95.821 88.0801 95.4629V90.873L83.3242 82.8359ZM96.5273 88.998C96.5273 86.752 97.1068 84.9681 98.2656 83.6465C99.4245 82.3249 101.078 81.6641 103.227 81.6641C105.375 81.6641 107.029 82.3249 108.188 83.6465C109.346 84.9681 109.926 86.752 109.926 88.998C109.926 91.2441 109.346 93.028 108.188 94.3496C107.029 95.6712 105.375 96.332 103.227 96.332C101.078 96.332 99.4245 95.6712 98.2656 94.3496C97.1068 93.028 96.5273 91.2441 96.5273 88.998ZM99.5742 88.998C99.5742 90.6257 99.8639 91.8724 100.443 92.7383C101.029 93.5977 101.957 94.0273 103.227 94.0273C104.496 94.0273 105.421 93.5977 106 92.7383C106.586 91.8724 106.879 90.6257 106.879 88.998C106.879 87.3704 106.586 86.127 106 85.2676C105.421 84.4017 104.496 83.9688 103.227 83.9688C101.957 83.9688 101.029 84.4017 100.443 85.2676C99.8639 86.127 99.5742 87.3704 99.5742 88.998ZM23.2461 125C22.7904 125 22.5625 124.756 22.5625 124.268V111.729C22.5625 111.24 22.7904 110.996 23.2461 110.996H26.8984C29.2422 110.996 30.8665 111.377 31.7715 112.139C32.6829 112.9 33.1387 113.981 33.1387 115.381C33.1387 116.781 32.6829 117.861 31.7715 118.623C30.8665 119.385 29.2422 119.766 26.8984 119.766H25.4141V124.268C25.4141 124.756 25.1862 125 24.7305 125H23.2461ZM25.4141 117.383H26.8887C28.1908 117.383 29.0762 117.23 29.5449 116.924C30.0137 116.611 30.248 116.097 30.248 115.381C30.248 114.665 30.0137 114.154 29.5449 113.848C29.0762 113.535 28.1908 113.379 26.8887 113.379H25.4141V117.383ZM34.8086 117.998C34.8086 115.752 35.388 113.968 36.5469 112.646C37.7057 111.325 39.3594 110.664 41.5078 110.664C43.6562 110.664 45.3099 111.325 46.4688 112.646C47.6276 113.968 48.207 115.752 48.207 117.998C48.207 120.244 47.6276 122.028 46.4688 123.35C45.3099 124.671 43.6562 125.332 41.5078 125.332C39.3594 125.332 37.7057 124.671 36.5469 123.35C35.388 122.028 34.8086 120.244 34.8086 117.998ZM37.8555 117.998C37.8555 119.626 38.1452 120.872 38.7246 121.738C39.3105 122.598 40.2383 123.027 41.5078 123.027C42.7773 123.027 43.7018 122.598 44.2812 121.738C44.8672 120.872 45.1602 119.626 45.1602 117.998C45.1602 116.37 44.8672 115.127 44.2812 114.268C43.7018 113.402 42.7773 112.969 41.5078 112.969C40.2383 112.969 39.3105 113.402 38.7246 114.268C38.1452 115.127 37.8555 116.37 37.8555 117.998ZM51.293 125C50.8372 125 50.6094 124.756 50.6094 124.268V111.729C50.6094 111.24 50.8372 110.996 51.293 110.996H52.7383C53.2982 110.996 53.7214 111.224 54.0078 111.68L58.9883 119.678H59.0566C59.0241 119.287 59.0078 118.896 59.0078 118.506V111.729C59.0078 111.24 59.2357 110.996 59.6914 110.996H61.1758C61.6315 110.996 61.8594 111.24 61.8594 111.729V124.268C61.8594 124.756 61.6315 125 61.1758 125H59.8281C59.2682 125 58.8451 124.772 58.5586 124.316L53.4805 116.172H53.4121C53.4447 116.562 53.4609 116.953 53.4609 117.344V124.268C53.4609 124.756 53.2331 125 52.7773 125H51.293ZM65.668 125C65.2122 125 64.9844 124.756 64.9844 124.268V111.729C64.9844 111.24 65.2122 110.996 65.668 110.996H69.0762C72.071 110.996 74.0957 111.602 75.1504 112.812C76.2116 114.023 76.7422 115.745 76.7422 117.979C76.7422 120.212 76.2116 121.94 75.1504 123.164C74.0957 124.388 72.071 125 69.0762 125H65.668ZM67.8359 122.578H68.8906C70.9089 122.578 72.2142 122.204 72.8066 121.455C73.3991 120.7 73.6953 119.541 73.6953 117.979C73.6953 116.416 73.3991 115.264 72.8066 114.521C72.2142 113.773 70.9089 113.398 68.8906 113.398H67.8359V122.578ZM79.8281 125C79.3724 125 79.1445 124.756 79.1445 124.268V111.729C79.1445 111.24 79.3724 110.996 79.8281 110.996H84.3496C86.3613 110.996 87.8294 111.309 88.7539 111.934C89.6784 112.552 90.1406 113.561 90.1406 114.961C90.1406 116.003 89.7663 116.833 89.0176 117.451C88.2689 118.07 87.3184 118.48 86.166 118.682V118.701C86.791 118.936 87.263 119.261 87.582 119.678C87.901 120.094 88.1615 120.459 88.3633 120.771L90.5117 124.16C90.8698 124.72 90.7461 125 90.1406 125H88.4414C88.0833 125 87.7904 124.808 87.5625 124.424L85.5898 121.133C85.375 120.781 84.9811 120.397 84.4082 119.98C83.8418 119.557 83.2786 119.346 82.7188 119.346H81.9961V124.268C81.9961 124.756 81.7682 125 81.3125 125H79.8281ZM81.9961 116.924H83.7441C85.0462 116.924 85.9707 116.777 86.5176 116.484C87.071 116.185 87.3477 115.713 87.3477 115.068C87.3477 114.365 87.0807 113.91 86.5469 113.701C86.0195 113.486 85.2415 113.379 84.2129 113.379H81.9961V116.924ZM93.7734 125C93.3177 125 93.0898 124.756 93.0898 124.268V111.729C93.0898 111.24 93.3177 110.996 93.7734 110.996H95.2578C95.7135 110.996 95.9414 111.24 95.9414 111.729V124.268C95.9414 124.756 95.7135 125 95.2578 125H93.7734ZM98.627 125C98.1582 125 98.0052 124.785 98.168 124.355L102.953 111.787C103.155 111.26 103.461 110.996 103.871 110.996H105.238C105.648 110.996 105.954 111.26 106.156 111.787L110.941 124.355C111.104 124.785 110.951 125 110.482 125H108.93C108.5 125 108.201 124.775 108.031 124.326L107.035 121.699H102.074L101.078 124.326C100.909 124.775 100.609 125 100.18 125H98.627ZM102.982 119.277H106.127L104.926 116.172C104.783 115.807 104.695 115.544 104.662 115.381C104.636 115.212 104.607 114.964 104.574 114.639H104.535C104.503 114.964 104.47 115.212 104.438 115.381C104.411 115.544 104.327 115.807 104.184 116.172L102.982 119.277ZM119.018 113.496C118.529 113.496 118.285 113.285 118.285 112.861V111.631C118.285 111.208 118.529 110.996 119.018 110.996H129.057C129.545 110.996 129.789 111.208 129.789 111.631V112.861C129.789 113.285 129.545 113.496 129.057 113.496H125.463V124.463C125.463 124.821 125.3 125 124.975 125H123.1C122.774 125 122.611 124.821 122.611 124.463V113.496H119.018ZM131.684 119.17V111.533C131.684 111.175 131.911 110.996 132.367 110.996H133.852C134.307 110.996 134.535 111.175 134.535 111.533V119.072C134.535 120.83 134.792 121.93 135.307 122.373C135.827 122.809 136.413 123.027 137.064 123.027C137.715 123.027 138.298 122.809 138.812 122.373C139.333 121.93 139.594 120.83 139.594 119.072V111.533C139.594 111.175 139.822 110.996 140.277 110.996H141.762C142.217 110.996 142.445 111.175 142.445 111.533V119.17C142.445 121.449 141.964 123.047 141 123.965C140.036 124.876 138.725 125.332 137.064 125.332C135.404 125.332 134.092 124.876 133.129 123.965C132.165 123.047 131.684 121.449 131.684 119.17ZM21.8398 146.998C21.8398 144.752 22.4095 142.968 23.5488 141.646C24.6882 140.325 26.332 139.664 28.4805 139.664C29.7174 139.664 30.7656 139.856 31.625 140.24C32.4844 140.624 33.0898 141.181 33.4414 141.91C33.6758 142.392 33.6367 142.717 33.3242 142.887L32.1523 143.512C31.7422 143.733 31.4036 143.609 31.1367 143.141C30.9674 142.841 30.6517 142.571 30.1895 142.33C29.7337 142.089 29.1966 141.969 28.5781 141.969C27.2109 141.969 26.2539 142.402 25.707 143.268C25.1602 144.127 24.8867 145.37 24.8867 146.998C24.8867 148.626 25.1602 149.872 25.707 150.738C26.2539 151.598 27.2109 152.027 28.5781 152.027C29.3138 152.027 29.9323 151.861 30.4336 151.529C30.9414 151.197 31.293 150.882 31.4883 150.582C31.8073 150.094 32.1458 149.97 32.5039 150.211L33.6758 150.992C33.9948 151.207 34.0273 151.533 33.7734 151.969C33.3958 152.62 32.748 153.176 31.8301 153.639C30.9121 154.101 29.7956 154.332 28.4805 154.332C26.3646 154.332 24.7272 153.671 23.5684 152.35C22.416 151.028 21.8398 149.244 21.8398 146.998ZM35.9707 154C35.502 154 35.349 153.785 35.5117 153.355L40.2969 140.787C40.4987 140.26 40.8047 139.996 41.2148 139.996H42.582C42.9922 139.996 43.2982 140.26 43.5 140.787L48.2852 153.355C48.4479 153.785 48.2949 154 47.8262 154H46.2734C45.8438 154 45.5443 153.775 45.375 153.326L44.3789 150.699H39.418L38.4219 153.326C38.2526 153.775 37.9531 154 37.5234 154H35.9707ZM40.3262 148.277H43.4707L42.2695 145.172C42.1263 144.807 42.0384 144.544 42.0059 144.381C41.9798 144.212 41.9505 143.964 41.918 143.639H41.8789C41.8464 143.964 41.8138 144.212 41.7812 144.381C41.7552 144.544 41.6706 144.807 41.5273 145.172L40.3262 148.277ZM50.707 154C50.2513 154 50.0234 153.756 50.0234 153.268V140.729C50.0234 140.24 50.2513 139.996 50.707 139.996H55.2285C57.2402 139.996 58.7083 140.309 59.6328 140.934C60.5573 141.552 61.0195 142.561 61.0195 143.961C61.0195 145.003 60.6452 145.833 59.8965 146.451C59.1478 147.07 58.1973 147.48 57.0449 147.682V147.701C57.6699 147.936 58.1419 148.261 58.4609 148.678C58.7799 149.094 59.0404 149.459 59.2422 149.771L61.3906 153.16C61.7487 153.72 61.625 154 61.0195 154H59.3203C58.9622 154 58.6693 153.808 58.4414 153.424L56.4688 150.133C56.2539 149.781 55.86 149.397 55.2871 148.98C54.7207 148.557 54.1576 148.346 53.5977 148.346H52.875V153.268C52.875 153.756 52.6471 154 52.1914 154H50.707ZM52.875 145.924H54.623C55.9251 145.924 56.8496 145.777 57.3965 145.484C57.9499 145.185 58.2266 144.713 58.2266 144.068C58.2266 143.365 57.9596 142.91 57.4258 142.701C56.8984 142.486 56.1204 142.379 55.0918 142.379H52.875V145.924ZM63.5293 154C63.0605 154 62.9076 153.785 63.0703 153.355L67.8555 140.787C68.0573 140.26 68.3633 139.996 68.7734 139.996H70.1406C70.5508 139.996 70.8568 140.26 71.0586 140.787L75.8438 153.355C76.0065 153.785 75.8535 154 75.3848 154H73.832C73.4023 154 73.1029 153.775 72.9336 153.326L71.9375 150.699H66.9766L65.9805 153.326C65.8112 153.775 65.5117 154 65.082 154H63.5293ZM67.8848 148.277H71.0293L69.8281 145.172C69.6849 144.807 69.597 144.544 69.5645 144.381C69.5384 144.212 69.5091 143.964 69.4766 143.639H69.4375C69.4049 143.964 69.3724 144.212 69.3398 144.381C69.3138 144.544 69.2292 144.807 69.0859 145.172L67.8848 148.277ZM85.1016 154C84.6458 154 84.418 153.756 84.418 153.268V140.729C84.418 140.24 84.6458 139.996 85.1016 139.996H93.4805C93.9688 139.996 94.2129 140.208 94.2129 140.631V141.783C94.2129 142.206 93.9688 142.418 93.4805 142.418H87.2695V145.523H92.9629C93.4512 145.523 93.6953 145.735 93.6953 146.158V147.311C93.6953 147.734 93.4512 147.945 92.9629 147.945H87.2695V151.578H93.793C94.2812 151.578 94.5254 151.79 94.5254 152.213V153.365C94.5254 153.788 94.2812 154 93.793 154H85.1016ZM97.6016 154C97.1458 154 96.918 153.756 96.918 153.268V140.729C96.918 140.24 97.1458 139.996 97.6016 139.996H99.0469C99.6068 139.996 100.03 140.224 100.316 140.68L105.297 148.678H105.365C105.333 148.287 105.316 147.896 105.316 147.506V140.729C105.316 140.24 105.544 139.996 106 139.996H107.484C107.94 139.996 108.168 140.24 108.168 140.729V153.268C108.168 153.756 107.94 154 107.484 154H106.137C105.577 154 105.154 153.772 104.867 153.316L99.7891 145.172H99.7207C99.7533 145.562 99.7695 145.953 99.7695 146.344V153.268C99.7695 153.756 99.5417 154 99.0859 154H97.6016ZM118.812 154C118.357 154 118.129 153.756 118.129 153.268V140.729C118.129 140.24 118.357 139.996 118.812 139.996H121.645C122.022 139.996 122.292 140.257 122.455 140.777L125.102 149.342C125.219 149.713 125.3 150.019 125.346 150.26C125.391 150.494 125.43 150.774 125.463 151.1H125.521C125.554 150.774 125.593 150.494 125.639 150.26C125.684 150.019 125.766 149.713 125.883 149.342L128.529 140.777C128.692 140.257 128.962 139.996 129.34 139.996H132.172C132.628 139.996 132.855 140.24 132.855 140.729V153.268C132.855 153.756 132.628 154 132.172 154H130.688C130.232 154 130.004 153.756 130.004 153.268V145.201C130.004 144.811 130.02 144.42 130.053 144.029H129.984L127.162 153.209C126.999 153.736 126.719 154 126.322 154H124.662C124.265 154 123.985 153.736 123.822 153.209L121 144.029H120.932C120.964 144.42 120.98 144.811 120.98 145.201V153.268C120.98 153.756 120.753 154 120.297 154H118.812ZM135.258 146.998C135.258 144.752 135.837 142.968 136.996 141.646C138.155 140.325 139.809 139.664 141.957 139.664C144.105 139.664 145.759 140.325 146.918 141.646C148.077 142.968 148.656 144.752 148.656 146.998C148.656 149.244 148.077 151.028 146.918 152.35C145.759 153.671 144.105 154.332 141.957 154.332C139.809 154.332 138.155 153.671 136.996 152.35C135.837 151.028 135.258 149.244 135.258 146.998ZM138.305 146.998C138.305 148.626 138.594 149.872 139.174 150.738C139.76 151.598 140.688 152.027 141.957 152.027C143.227 152.027 144.151 151.598 144.73 150.738C145.316 149.872 145.609 148.626 145.609 146.998C145.609 145.37 145.316 144.127 144.73 143.268C144.151 142.402 143.227 141.969 141.957 141.969C140.688 141.969 139.76 142.402 139.174 143.268C138.594 144.127 138.305 145.37 138.305 146.998ZM151.742 154C151.286 154 151.059 153.756 151.059 153.268V140.729C151.059 140.24 151.286 139.996 151.742 139.996H153.188C153.747 139.996 154.171 140.224 154.457 140.68L159.438 148.678H159.506C159.473 148.287 159.457 147.896 159.457 147.506V140.729C159.457 140.24 159.685 139.996 160.141 139.996H161.625C162.081 139.996 162.309 140.24 162.309 140.729V153.268C162.309 153.756 162.081 154 161.625 154H160.277C159.717 154 159.294 153.772 159.008 153.316L153.93 145.172H153.861C153.894 145.562 153.91 145.953 153.91 146.344V153.268C153.91 153.756 153.682 154 153.227 154H151.742ZM164.711 146.998C164.711 144.752 165.29 142.968 166.449 141.646C167.608 140.325 169.262 139.664 171.41 139.664C173.559 139.664 175.212 140.325 176.371 141.646C177.53 142.968 178.109 144.752 178.109 146.998C178.109 149.244 177.53 151.028 176.371 152.35C175.212 153.671 173.559 154.332 171.41 154.332C169.262 154.332 167.608 153.671 166.449 152.35C165.29 151.028 164.711 149.244 164.711 146.998ZM167.758 146.998C167.758 148.626 168.048 149.872 168.627 150.738C169.213 151.598 170.141 152.027 171.41 152.027C172.68 152.027 173.604 151.598 174.184 150.738C174.77 149.872 175.062 148.626 175.062 146.998C175.062 145.37 174.77 144.127 174.184 143.268C173.604 142.402 172.68 141.969 171.41 141.969C170.141 141.969 169.213 142.402 168.627 143.268C168.048 144.127 167.758 145.37 167.758 146.998ZM21.8398 175.998C21.8398 173.752 22.4095 171.968 23.5488 170.646C24.6882 169.325 26.332 168.664 28.4805 168.664C29.7174 168.664 30.7656 168.856 31.625 169.24C32.4844 169.624 33.0898 170.181 33.4414 170.91C33.6758 171.392 33.6367 171.717 33.3242 171.887L32.1523 172.512C31.7422 172.733 31.4036 172.609 31.1367 172.141C30.9674 171.841 30.6517 171.571 30.1895 171.33C29.7337 171.089 29.1966 170.969 28.5781 170.969C27.2109 170.969 26.2539 171.402 25.707 172.268C25.1602 173.127 24.8867 174.37 24.8867 175.998C24.8867 177.626 25.1602 178.872 25.707 179.738C26.2539 180.598 27.2109 181.027 28.5781 181.027C29.3138 181.027 29.9323 180.861 30.4336 180.529C30.9414 180.197 31.293 179.882 31.4883 179.582C31.8073 179.094 32.1458 178.97 32.5039 179.211L33.6758 179.992C33.9948 180.207 34.0273 180.533 33.7734 180.969C33.3958 181.62 32.748 182.176 31.8301 182.639C30.9121 183.101 29.7956 183.332 28.4805 183.332C26.3646 183.332 24.7272 182.671 23.5684 181.35C22.416 180.028 21.8398 178.244 21.8398 175.998ZM35.6875 175.998C35.6875 173.752 36.2669 171.968 37.4258 170.646C38.5846 169.325 40.2383 168.664 42.3867 168.664C44.5352 168.664 46.1888 169.325 47.3477 170.646C48.5065 171.968 49.0859 173.752 49.0859 175.998C49.0859 178.244 48.5065 180.028 47.3477 181.35C46.1888 182.671 44.5352 183.332 42.3867 183.332C40.2383 183.332 38.5846 182.671 37.4258 181.35C36.2669 180.028 35.6875 178.244 35.6875 175.998ZM38.7344 175.998C38.7344 177.626 39.0241 178.872 39.6035 179.738C40.1895 180.598 41.1172 181.027 42.3867 181.027C43.6562 181.027 44.5807 180.598 45.1602 179.738C45.7461 178.872 46.0391 177.626 46.0391 175.998C46.0391 174.37 45.7461 173.127 45.1602 172.268C44.5807 171.402 43.6562 170.969 42.3867 170.969C41.1172 170.969 40.1895 171.402 39.6035 172.268C39.0241 173.127 38.7344 174.37 38.7344 175.998ZM52.1719 183C51.7161 183 51.4883 182.756 51.4883 182.268V169.729C51.4883 169.24 51.7161 168.996 52.1719 168.996H53.7539C54.1445 168.996 54.3398 169.24 54.3398 169.729V180.578H60.0332C60.5215 180.578 60.7656 180.79 60.7656 181.213V182.365C60.7656 182.788 60.5215 183 60.0332 183H52.1719ZM62.1133 175.998C62.1133 173.752 62.6927 171.968 63.8516 170.646C65.0104 169.325 66.6641 168.664 68.8125 168.664C70.9609 168.664 72.6146 169.325 73.7734 170.646C74.9323 171.968 75.5117 173.752 75.5117 175.998C75.5117 178.244 74.9323 180.028 73.7734 181.35C72.6146 182.671 70.9609 183.332 68.8125 183.332C66.6641 183.332 65.0104 182.671 63.8516 181.35C62.6927 180.028 62.1133 178.244 62.1133 175.998ZM65.1602 175.998C65.1602 177.626 65.4499 178.872 66.0293 179.738C66.6152 180.598 67.543 181.027 68.8125 181.027C70.082 181.027 71.0065 180.598 71.5859 179.738C72.1719 178.872 72.4648 177.626 72.4648 175.998C72.4648 174.37 72.1719 173.127 71.5859 172.268C71.0065 171.402 70.082 170.969 68.8125 170.969C67.543 170.969 66.6152 171.402 66.0293 172.268C65.4499 173.127 65.1602 174.37 65.1602 175.998ZM78.5977 183C78.1419 183 77.9141 182.756 77.9141 182.268V169.729C77.9141 169.24 78.1419 168.996 78.5977 168.996H83.1191C85.1309 168.996 86.599 169.309 87.5234 169.934C88.4479 170.552 88.9102 171.561 88.9102 172.961C88.9102 174.003 88.5358 174.833 87.7871 175.451C87.0384 176.07 86.0879 176.48 84.9355 176.682V176.701C85.5605 176.936 86.0326 177.261 86.3516 177.678C86.6706 178.094 86.931 178.459 87.1328 178.771L89.2812 182.16C89.6393 182.72 89.5156 183 88.9102 183H87.2109C86.8529 183 86.5599 182.808 86.332 182.424L84.3594 179.133C84.1445 178.781 83.7507 178.397 83.1777 177.98C82.6113 177.557 82.0482 177.346 81.4883 177.346H80.7656V182.268C80.7656 182.756 80.5378 183 80.082 183H78.5977ZM80.7656 174.924H82.5137C83.8158 174.924 84.7402 174.777 85.2871 174.484C85.8405 174.185 86.1172 173.713 86.1172 173.068C86.1172 172.365 85.8503 171.91 85.3164 171.701C84.7891 171.486 84.0111 171.379 82.9824 171.379H80.7656V174.924Z" fill="black"/>
</svg>
